#define above_width 36
#define above_height 36
static unsigned char above_bits[] = {
   0x00, 0x00, 0x00, 0x00, 0x00, 0x00, 0x00, 0x00, 0x00, 0x00, 0x00, 0x00,
   0x00, 0x00, 0x00, 0x00, 0x00, 0x00, 0x00, 0x00, 0x00, 0x00, 0x01, 0x00,
   0x00, 0x00, 0x80, 0x03, 0x00, 0x00, 0x00, 0x40, 0x05, 0x00, 0x00, 0x00,
   0x00, 0x01, 0x00, 0x00, 0x00, 0x00, 0x01, 0x00, 0x00, 0x00, 0x00, 0x01,
   0x00, 0x00, 0x00, 0x00, 0x01, 0x00, 0x00, 0x00, 0x00, 0x01, 0x00, 0x00,
   0x00, 0x00, 0x01, 0x00, 0x00, 0x00, 0x00, 0x01, 0x00, 0x00, 0x00, 0x00,
   0x01, 0x00, 0x00, 0x00, 0x00, 0x01, 0x00, 0x00, 0x00, 0xf0, 0xff, 0xff,
   0x01, 0x00, 0x08, 0x01, 0x80, 0x00, 0x00, 0x04, 0x01, 0x40, 0x00, 0x00,
   0x02, 0x01, 0x20, 0x00, 0x00, 0x01, 0x01, 0x10, 0x00, 0x80, 0x00, 0x01,
   0x08, 0x00, 0x40, 0x00, 0x00, 0x04, 0x00, 0x20, 0x00, 0x00, 0x02, 0x00,
   0x10, 0x00, 0x00, 0x01, 0x00, 0x08, 0x00, 0x80, 0x00, 0x00, 0x04, 0x00,
   0x40, 0x00, 0x00, 0xfe, 0xff, 0x3f, 0x00, 0x00, 0x00, 0x00, 0x00, 0x00,
   0x00, 0x00, 0x00, 0x00, 0x00, 0x00, 0x00, 0x00, 0x00, 0x00, 0x00, 0x00,
   0x00, 0x00, 0x00, 0x00, 0x00, 0x00, 0x00, 0x00, 0x00, 0x00, 0x00, 0x00,
   0x00, 0x00, 0x00, 0x00, 0x00, 0x00, 0x00, 0x00, 0x00, 0x00, 0x00, 0x00};
