#define beam_sight_width 32
#define beam_sight_height 32
static unsigned char beam_sight_bits[] = {
   0x00, 0x00, 0x00, 0x00, 0x00, 0xf0, 0x07, 0x00, 0x00, 0x8e, 0x38, 0x00,
   0x80, 0x81, 0xc0, 0x00, 0x40, 0x80, 0x00, 0x01, 0x20, 0x80, 0x00, 0x02,
   0x10, 0x80, 0x00, 0x04, 0x08, 0x80, 0x00, 0x08, 0x08, 0x80, 0x00, 0x08,
   0x04, 0x80, 0x00, 0x10, 0x04, 0x80, 0x00, 0x10, 0x04, 0x80, 0x00, 0x10,
   0x02, 0x80, 0x00, 0x20, 0x02, 0x80, 0x00, 0x20, 0x02, 0x80, 0x00, 0x20,
   0xfe, 0x7f, 0xff, 0x3f, 0x02, 0x80, 0x00, 0x20, 0x02, 0x80, 0x00, 0x20,
   0x02, 0x80, 0x00, 0x20, 0x04, 0x80, 0x00, 0x10, 0x04, 0x80, 0x00, 0x10,
   0x04, 0x80, 0x00, 0x10, 0x08, 0x80, 0x00, 0x08, 0x08, 0x80, 0x00, 0x08,
   0x10, 0x80, 0x00, 0x04, 0x20, 0x80, 0x00, 0x02, 0x40, 0x80, 0x00, 0x01,
   0x80, 0x81, 0xc0, 0x00, 0x00, 0x8e, 0x38, 0x00, 0x00, 0xf0, 0x07, 0x00,
   0x00, 0x00, 0x00, 0x00, 0x00, 0x00, 0x00, 0x00};
