#define clipping_width 32
#define clipping_height 32
static unsigned char clipping_bits[] = {
   0x00, 0x80, 0x00, 0x00, 0x00, 0xc0, 0x01, 0x00, 0x00, 0xa0, 0x02, 0x00,
   0x00, 0x90, 0x04, 0x00, 0x00, 0x80, 0x00, 0x00, 0x00, 0x80, 0x00, 0x00,
   0x00, 0x80, 0x00, 0x00, 0x00, 0xff, 0xff, 0x1f, 0x80, 0x80, 0x00, 0x08,
   0x40, 0x80, 0x00, 0x04, 0x20, 0x00, 0x00, 0x02, 0x10, 0x00, 0x00, 0x01,
   0x08, 0x00, 0x80, 0x00, 0xfc, 0xff, 0x7f, 0x00, 0x00, 0x00, 0x00, 0x00,
   0x00, 0x00, 0x00, 0x00, 0x00, 0x00, 0x00, 0x00, 0x00, 0xff, 0xff, 0x0f,
   0x80, 0x00, 0x00, 0x04, 0x40, 0x00, 0x00, 0x02, 0x20, 0x00, 0x00, 0x01,
   0x10, 0x00, 0x80, 0x00, 0x08, 0x00, 0x40, 0x00, 0xfc, 0xff, 0x3f, 0x00,
   0x00, 0x80, 0x00, 0x00, 0x00, 0x80, 0x00, 0x00, 0x00, 0x80, 0x00, 0x00,
   0x00, 0x80, 0x00, 0x00, 0x00, 0x90, 0x04, 0x00, 0x00, 0xa0, 0x02, 0x00,
   0x00, 0xc0, 0x01, 0x00, 0x00, 0x80, 0x00, 0x00};
