#define color_width 32
#define color_height 32
static unsigned char color_bits[] = {
   0x00, 0x00, 0x00, 0x00, 0x00, 0x00, 0x00, 0x00, 0xf0, 0x01, 0x00, 0x00,
   0x10, 0x02, 0x00, 0x00, 0x10, 0x02, 0x00, 0x00, 0x10, 0x02, 0x00, 0x00,
   0xf0, 0x01, 0x00, 0x00, 0x90, 0x00, 0x00, 0x00, 0x10, 0x01, 0x00, 0x00,
   0x10, 0x02, 0x00, 0x00, 0x10, 0x02, 0x00, 0x00, 0x00, 0x00, 0x00, 0x00,
   0x00, 0x00, 0x00, 0x00, 0x00, 0xe0, 0x03, 0x00, 0x00, 0x10, 0x00, 0x00,
   0x00, 0x10, 0x00, 0x00, 0x00, 0x10, 0x00, 0x00, 0x00, 0x90, 0x07, 0x00,
   0x00, 0x10, 0x04, 0x00, 0x00, 0x20, 0x04, 0x00, 0x00, 0xc0, 0x03, 0x00,
   0x00, 0x00, 0x00, 0x00, 0x00, 0x00, 0xc0, 0x03, 0x00, 0x00, 0x40, 0x04,
   0x00, 0x00, 0x40, 0x04, 0x00, 0x00, 0x40, 0x04, 0x00, 0x00, 0xc0, 0x03,
   0x00, 0x00, 0x40, 0x04, 0x00, 0x00, 0x40, 0x04, 0x00, 0x00, 0x40, 0x04,
   0x00, 0x00, 0xc0, 0x03, 0x00, 0x00, 0x00, 0x00};
