#define contours_width 32
#define contours_height 32
static unsigned char contours_bits[] = {
   0x00, 0x0c, 0x80, 0x07, 0x00, 0x02, 0x00, 0x08, 0xee, 0x00, 0x00, 0x30,
   0x28, 0x00, 0x00, 0x40, 0xc4, 0x00, 0xff, 0x80, 0x82, 0xe0, 0x00, 0x01,
   0x60, 0x10, 0x00, 0x02, 0x00, 0x08, 0x00, 0x04, 0x04, 0x04, 0x00, 0x08,
   0x04, 0x02, 0x00, 0x08, 0x04, 0x01, 0x74, 0x10, 0x04, 0xc1, 0x55, 0x10,
   0x02, 0x21, 0x74, 0x10, 0x02, 0x11, 0x00, 0x10, 0x01, 0x11, 0x20, 0x10,
   0x01, 0x11, 0x20, 0x08, 0x01, 0x31, 0x20, 0x08, 0x00, 0xe1, 0x30, 0x08,
   0x00, 0x81, 0x1f, 0x04, 0x00, 0x01, 0x00, 0x04, 0x00, 0x01, 0x00, 0x02,
   0x00, 0x01, 0x00, 0x02, 0x00, 0x01, 0x00, 0x01, 0x00, 0x72, 0x82, 0x00,
   0x00, 0x14, 0x75, 0x80, 0x01, 0x60, 0x05, 0x80, 0x03, 0x40, 0x05, 0xc0,
   0x02, 0x30, 0x02, 0x40, 0x06, 0x00, 0x00, 0x20, 0x08, 0x00, 0x00, 0x30,
   0x38, 0x00, 0x00, 0x10, 0xe0, 0x01, 0x00, 0x0c};
