#define crossh3_width 32
#define crossh3_height 32
static unsigned char crossh3_bits[] = {
   0x00, 0x80, 0x01, 0x00, 0x00, 0x80, 0x01, 0x00, 0x00, 0x80, 0x01, 0x00,
   0x00, 0x80, 0x01, 0x00, 0x00, 0x80, 0x01, 0x00, 0x00, 0x80, 0x01, 0x00,
   0x00, 0x80, 0x01, 0x00, 0x00, 0x80, 0x01, 0x00, 0x00, 0x80, 0x01, 0x00,
   0x00, 0x80, 0x01, 0x00, 0x00, 0x80, 0x01, 0x00, 0x00, 0x80, 0x01, 0x00,
   0x00, 0x40, 0x02, 0x00, 0x00, 0x20, 0x04, 0x00, 0x00, 0x10, 0x08, 0x00,
   0xff, 0x0f, 0xf0, 0xff, 0xff, 0x0f, 0xf0, 0xff, 0x00, 0x10, 0x08, 0x00,
   0x00, 0x20, 0x04, 0x00, 0x00, 0x40, 0x02, 0x00, 0x00, 0x80, 0x01, 0x00,
   0x00, 0x80, 0x01, 0x00, 0x00, 0x80, 0x01, 0x00, 0x00, 0x80, 0x01, 0x00,
   0x00, 0x80, 0x01, 0x00, 0x00, 0x80, 0x01, 0x00, 0x00, 0x80, 0x01, 0x00,
   0x00, 0x80, 0x01, 0x00, 0x00, 0x80, 0x01, 0x00, 0x00, 0x80, 0x01, 0x00,
   0x00, 0x80, 0x01, 0x00, 0x00, 0x80, 0x01, 0x00};
