#define front_width 36
#define front_height 36
static unsigned char front_bits[] = {
   0x00, 0x00, 0x00, 0x00, 0x00, 0x00, 0x00, 0x00, 0x00, 0x00, 0x00, 0x00,
   0x00, 0x00, 0x00, 0x00, 0x00, 0x00, 0x00, 0x00, 0x80, 0xff, 0xff, 0x1f,
   0x00, 0x80, 0x00, 0x00, 0x10, 0x00, 0x80, 0x00, 0x00, 0x10, 0x00, 0x80,
   0x00, 0x00, 0x10, 0x00, 0x80, 0x00, 0x00, 0x10, 0x00, 0x80, 0x00, 0x00,
   0x10, 0x00, 0x80, 0x00, 0x00, 0x10, 0x00, 0x80, 0x00, 0x00, 0x10, 0x00,
   0x80, 0x00, 0x00, 0x10, 0x00, 0x80, 0x00, 0x00, 0x10, 0x00, 0x80, 0x00,
   0x00, 0x10, 0x00, 0x80, 0x00, 0x00, 0x10, 0x00, 0x80, 0x00, 0x00, 0x10,
   0x00, 0x80, 0x00, 0x02, 0x10, 0x00, 0x80, 0x00, 0x02, 0x10, 0x00, 0x80,
   0x00, 0x02, 0x10, 0x00, 0x80, 0x00, 0x02, 0x10, 0x00, 0x80, 0x00, 0x02,
   0x10, 0x00, 0x80, 0x00, 0x02, 0x10, 0x00, 0x80, 0x00, 0x02, 0x10, 0x00,
   0x80, 0x00, 0x02, 0x10, 0x00, 0x80, 0x00, 0x02, 0x10, 0x00, 0x80, 0xff,
   0xff, 0x1f, 0x00, 0x00, 0x00, 0x02, 0x00, 0x00, 0x00, 0x00, 0x02, 0x00,
   0x00, 0x00, 0x00, 0x02, 0x00, 0x00, 0x00, 0x80, 0x0a, 0x00, 0x00, 0x00,
   0x00, 0x07, 0x00, 0x00, 0x00, 0x00, 0x02, 0x00, 0x00, 0x00, 0x00, 0x00,
   0x00, 0x00, 0x00, 0x00, 0x00, 0x00, 0x00, 0x00, 0x00, 0x00, 0x00, 0x00};
