#define info_width 64
#define info_height 100
static unsigned char info_bits[] = {
   0x00, 0x00, 0x00, 0x00, 0x00, 0x00, 0x00, 0x00, 0x00, 0x00, 0x00, 0x00,
   0x00, 0x00, 0x00, 0x00, 0x00, 0x00, 0x00, 0x00, 0x00, 0x00, 0x00, 0x00,
   0xff, 0xff, 0xff, 0xff, 0xff, 0xff, 0xff, 0xff, 0x00, 0x00, 0x00, 0x00,
   0x00, 0x00, 0x00, 0x00, 0x00, 0x00, 0x00, 0x00, 0x00, 0x00, 0x00, 0x00,
   0x00, 0x00, 0x00, 0x00, 0x00, 0x00, 0x00, 0x00, 0x00, 0x00, 0x00, 0x00,
   0x00, 0x00, 0x00, 0x00, 0xff, 0xff, 0xff, 0xff, 0xff, 0xff, 0xff, 0xff,
   0x00, 0x00, 0x00, 0x00, 0x00, 0x00, 0x00, 0x00, 0x00, 0x00, 0x00, 0x00,
   0x00, 0x00, 0x00, 0x00, 0x00, 0x00, 0x00, 0x00, 0x00, 0x00, 0x00, 0x00,
   0x00, 0x00, 0x00, 0x00, 0x00, 0x00, 0x00, 0x00, 0x00, 0x00, 0x00, 0x00,
   0x00, 0x00, 0x00, 0x00, 0x00, 0x00, 0x00, 0x00, 0x00, 0x00, 0x00, 0x00,
   0xff, 0xff, 0xff, 0xff, 0xff, 0xff, 0xff, 0xff, 0x00, 0x00, 0x00, 0x00,
   0x00, 0x00, 0x00, 0x00, 0x00, 0x00, 0x00, 0x00, 0x00, 0x00, 0x00, 0x00,
   0x00, 0x00, 0x00, 0x00, 0x00, 0x00, 0x00, 0x00, 0x00, 0x00, 0x00, 0x00,
   0x00, 0x00, 0x00, 0x00, 0x00, 0x00, 0x00, 0x00, 0x00, 0x00, 0x00, 0x00,
   0x00, 0x00, 0x00, 0x00, 0x00, 0x00, 0x00, 0x00, 0x00, 0x00, 0x00, 0xfc,
   0x1f, 0x00, 0x00, 0x00, 0x00, 0x00, 0xc0, 0x03, 0xe0, 0x01, 0x00, 0x00,
   0x00, 0x00, 0x38, 0x00, 0x00, 0x0e, 0x00, 0x00, 0x00, 0x00, 0x06, 0x00,
   0x00, 0x30, 0x00, 0x00, 0x00, 0x00, 0x01, 0xf0, 0x01, 0x40, 0x00, 0x00,
   0x00, 0xc0, 0x00, 0xf8, 0x03, 0x80, 0x01, 0x00, 0x00, 0x20, 0x00, 0xfc,
   0x07, 0x00, 0x02, 0x00, 0x00, 0x18, 0x00, 0xfc, 0x07, 0x00, 0x0c, 0x00,
   0x00, 0x04, 0x00, 0xfc, 0x07, 0x00, 0x10, 0x00, 0x00, 0x02, 0x00, 0xfc,
   0x07, 0x00, 0x20, 0x00, 0x00, 0x01, 0x00, 0xfc, 0x07, 0x00, 0x40, 0x00,
   0x00, 0x01, 0x00, 0xf8, 0x03, 0x00, 0x40, 0x00, 0x80, 0x00, 0x00, 0xf0,
   0x01, 0x00, 0x80, 0x00, 0x40, 0x00, 0x00, 0x00, 0x00, 0x00, 0x00, 0x01,
   0x40, 0x00, 0x00, 0x00, 0x00, 0x00, 0x00, 0x01, 0x20, 0x00, 0x00, 0x00,
   0x00, 0x00, 0x00, 0x02, 0x10, 0x00, 0x00, 0xff, 0x07, 0x00, 0x00, 0x04,
   0x10, 0x00, 0x00, 0xff, 0x07, 0x00, 0x00, 0x04, 0x08, 0x00, 0x00, 0xff,
   0x07, 0x00, 0x00, 0x08, 0x08, 0x00, 0x00, 0xff, 0x07, 0x00, 0x00, 0x08,
   0x08, 0x00, 0x00, 0xe0, 0x07, 0x00, 0x00, 0x08, 0x04, 0x00, 0x00, 0xe0,
   0x07, 0x00, 0x00, 0x10, 0x04, 0x00, 0x00, 0xe0, 0x07, 0x00, 0x00, 0x10,
   0x04, 0x00, 0x00, 0xe0, 0x07, 0x00, 0x00, 0x10, 0x04, 0x00, 0x00, 0xe0,
   0x07, 0x00, 0x00, 0x10, 0x02, 0x00, 0x00, 0xe0, 0x07, 0x00, 0x00, 0x20,
   0x02, 0x00, 0x00, 0xe0, 0x07, 0x00, 0x00, 0x20, 0x02, 0x00, 0x00, 0xe0,
   0x07, 0x00, 0x00, 0x20, 0x02, 0x00, 0x00, 0xe0, 0x07, 0x00, 0x00, 0x20,
   0x02, 0x00, 0x00, 0xe0, 0x07, 0x00, 0x00, 0x20, 0x02, 0x00, 0x00, 0xe0,
   0x07, 0x00, 0x00, 0x20, 0x02, 0x00, 0x00, 0xe0, 0x07, 0x00, 0x00, 0x20,
   0x02, 0x00, 0x00, 0xe0, 0x07, 0x00, 0x00, 0x20, 0x02, 0x00, 0x00, 0xe0,
   0x07, 0x00, 0x00, 0x20, 0x02, 0x00, 0x00, 0xe0, 0x07, 0x00, 0x00, 0x20,
   0x02, 0x00, 0x00, 0xe0, 0x07, 0x00, 0x00, 0x20, 0x04, 0x00, 0x00, 0xe0,
   0x07, 0x00, 0x00, 0x10, 0x04, 0x00, 0x00, 0xe0, 0x07, 0x00, 0x00, 0x10,
   0x04, 0x00, 0x00, 0xe0, 0x07, 0x00, 0x00, 0x10, 0x04, 0x00, 0x00, 0xe0,
   0x07, 0x00, 0x00, 0x10, 0x08, 0x00, 0x00, 0xe0, 0x07, 0x00, 0x00, 0x08,
   0x08, 0x00, 0x00, 0xe0, 0x07, 0x00, 0x00, 0x08, 0x08, 0x00, 0x00, 0xe0,
   0x07, 0x00, 0x00, 0x08, 0x10, 0x00, 0x00, 0xe0, 0x07, 0x00, 0x00, 0x04,
   0x10, 0x00, 0x00, 0xe0, 0x07, 0x00, 0x00, 0x04, 0x20, 0x00, 0x00, 0xe0,
   0x07, 0x00, 0x00, 0x02, 0x40, 0x00, 0x00, 0xe0, 0x07, 0x00, 0x00, 0x01,
   0x40, 0x00, 0x00, 0xe0, 0x07, 0x00, 0x00, 0x01, 0x80, 0x00, 0x00, 0xe0,
   0x07, 0x00, 0x80, 0x00, 0x00, 0x01, 0x00, 0xe0, 0x07, 0x00, 0x40, 0x00,
   0x00, 0x01, 0x00, 0xe0, 0x07, 0x00, 0x40, 0x00, 0x00, 0x02, 0x00, 0xe0,
   0x07, 0x00, 0x20, 0x00, 0x00, 0x04, 0x80, 0xff, 0xff, 0x00, 0x10, 0x00,
   0x00, 0x18, 0x80, 0xff, 0xff, 0x00, 0x0c, 0x00, 0x00, 0x20, 0x80, 0xff,
   0xff, 0x00, 0x02, 0x00, 0x00, 0xc0, 0x80, 0xff, 0xff, 0x80, 0x01, 0x00,
   0x00, 0x00, 0x01, 0x00, 0x00, 0x40, 0x00, 0x00, 0x00, 0x00, 0x06, 0x00,
   0x00, 0x30, 0x00, 0x00, 0x00, 0x00, 0x38, 0x00, 0x00, 0x0e, 0x00, 0x00,
   0x00, 0x00, 0xc0, 0x03, 0xe0, 0x01, 0x00, 0x00, 0x00, 0x00, 0x00, 0xfc,
   0x1f, 0x00, 0x00, 0x00, 0x00, 0x00, 0x00, 0x00, 0x00, 0x00, 0x00, 0x00,
   0x00, 0x00, 0x00, 0x00, 0x00, 0x00, 0x00, 0x00, 0xff, 0xff, 0xff, 0xff,
   0xff, 0xff, 0xff, 0xff, 0x00, 0x00, 0x00, 0x00, 0x00, 0x00, 0x00, 0x00,
   0x00, 0x00, 0x00, 0x00, 0x00, 0x00, 0x00, 0x00, 0x00, 0x00, 0x00, 0x00,
   0x00, 0x00, 0x00, 0x00, 0x00, 0x00, 0x00, 0x00, 0x00, 0x00, 0x00, 0x00,
   0x00, 0x00, 0x00, 0x00, 0x00, 0x00, 0x00, 0x00, 0xff, 0xff, 0xff, 0xff,
   0xff, 0xff, 0xff, 0xff, 0x00, 0x00, 0x00, 0x00, 0x00, 0x00, 0x00, 0x00,
   0x00, 0x00, 0x00, 0x00, 0x00, 0x00, 0x00, 0x00, 0x00, 0x00, 0x00, 0x00,
   0x00, 0x00, 0x00, 0x00, 0x00, 0x00, 0x00, 0x00, 0x00, 0x00, 0x00, 0x00,
   0x00, 0x00, 0x00, 0x00, 0x00, 0x00, 0x00, 0x00, 0xff, 0xff, 0xff, 0xff,
   0xff, 0xff, 0xff, 0xff, 0x00, 0x00, 0x00, 0x00, 0x00, 0x00, 0x00, 0x00,
   0x00, 0x00, 0x00, 0x00, 0x00, 0x00, 0x00, 0x00};
