#define lines_width 32
#define lines_height 32
static unsigned char lines_bits[] = {
   0x00, 0x00, 0x00, 0x00, 0x00, 0x80, 0x01, 0x00, 0x00, 0x70, 0x06, 0x00,
   0x00, 0x0c, 0x18, 0x00, 0x00, 0x03, 0x60, 0x00, 0x80, 0x00, 0x80, 0x00,
   0x40, 0x00, 0x00, 0x03, 0x20, 0x00, 0x00, 0x04, 0x10, 0x00, 0x00, 0x04,
   0x10, 0x00, 0x00, 0x08, 0x10, 0x00, 0x00, 0x08, 0x08, 0x00, 0x00, 0x08,
   0x08, 0x04, 0xc0, 0x10, 0x04, 0x0b, 0xb8, 0x10, 0xc4, 0x30, 0x07, 0x11,
   0x44, 0xc0, 0x00, 0x11, 0x44, 0x00, 0x00, 0x12, 0x44, 0x00, 0x10, 0x14,
   0x44, 0x00, 0x6c, 0x14, 0x44, 0x00, 0x82, 0x14, 0x48, 0x00, 0x82, 0x14,
   0x88, 0x00, 0x82, 0x14, 0x88, 0x00, 0x42, 0x0a, 0x90, 0x00, 0x64, 0x0a,
   0x10, 0x03, 0x1c, 0x09, 0x20, 0x04, 0x00, 0x08, 0x40, 0x08, 0x80, 0x04,
   0x80, 0x30, 0x40, 0x06, 0x00, 0xc3, 0x1f, 0x01, 0x00, 0x0c, 0x80, 0x00,
   0x00, 0x30, 0x40, 0x00, 0x00, 0xc0, 0x3f, 0x00};
