#define mouse_width 32
#define mouse_height 32
static unsigned char mouse_bits[] = {
   0x00, 0x00, 0x00, 0x00, 0x00, 0x00, 0x00, 0x00, 0x00, 0x00, 0x00, 0x00,
   0x00, 0x00, 0x00, 0x00, 0x00, 0x00, 0x00, 0x00, 0x00, 0xf8, 0x0f, 0x00,
   0x00, 0x14, 0x09, 0x00, 0x00, 0x12, 0x11, 0x00, 0x00, 0x12, 0x11, 0x00,
   0x00, 0x11, 0x11, 0x00, 0x00, 0x11, 0x11, 0x00, 0x00, 0x11, 0x11, 0x00,
   0x00, 0xff, 0x1f, 0x00, 0x00, 0x01, 0x10, 0x00, 0x00, 0x01, 0x10, 0x00,
   0x00, 0x01, 0x30, 0x00, 0x00, 0x01, 0x20, 0x00, 0x00, 0x01, 0x20, 0x00,
   0x00, 0x01, 0x20, 0x00, 0x00, 0x01, 0x20, 0x00, 0x00, 0x01, 0x20, 0x00,
   0x00, 0x01, 0x20, 0x00, 0x00, 0x02, 0x10, 0x00, 0x00, 0x0c, 0x08, 0x00,
   0x00, 0x18, 0x04, 0x00, 0x00, 0xe0, 0x03, 0x00, 0x00, 0x00, 0x01, 0x00,
   0x00, 0x00, 0x01, 0x00, 0x00, 0x00, 0x01, 0x00, 0x00, 0x00, 0x0e, 0x00,
   0x00, 0x00, 0x30, 0x00, 0x00, 0x00, 0x20, 0x00};
