#define mouse_b_width 32
#define mouse_b_height 32
static unsigned char mouse_b_bits[] = {
   0x00, 0x00, 0x00, 0x00, 0x00, 0xfe, 0x7f, 0x00, 0x00, 0x09, 0xc0, 0x00,
   0x80, 0x09, 0xc0, 0x01, 0xc0, 0x08, 0x40, 0x01, 0x20, 0x08, 0x40, 0x01,
   0x10, 0x28, 0x50, 0x06, 0x18, 0x48, 0x48, 0x08, 0x04, 0xc8, 0x4c, 0x08,
   0x14, 0x8a, 0x47, 0x10, 0x24, 0x09, 0x43, 0x20, 0xc4, 0x08, 0x43, 0x20,
   0xc4, 0x08, 0x43, 0x20, 0x24, 0x09, 0x43, 0x20, 0x14, 0x0a, 0x43, 0x60,
   0x04, 0x08, 0x40, 0x40, 0xfc, 0xff, 0xff, 0x7f, 0x04, 0x00, 0x00, 0x40,
   0x04, 0x00, 0x00, 0x40, 0x04, 0x00, 0x00, 0x40, 0x04, 0x00, 0x00, 0x40,
   0x04, 0x00, 0x00, 0x20, 0x04, 0x00, 0x00, 0x20, 0x04, 0x00, 0x00, 0x20,
   0x04, 0x00, 0x00, 0x20, 0x04, 0x00, 0x00, 0x20, 0x04, 0x00, 0x00, 0x20,
   0x04, 0x00, 0x00, 0x20, 0x08, 0x00, 0x00, 0x10, 0x08, 0x00, 0x00, 0x10,
   0x08, 0x00, 0x00, 0x10, 0x00, 0x00, 0x00, 0x00};
