#define nurbs_width 32
#define nurbs_height 32
static unsigned char nurbs_bits[] = {
   0x00, 0x00, 0x00, 0x00, 0x00, 0x00, 0x00, 0x00, 0x00, 0x00, 0x00, 0x00,
   0x00, 0x00, 0x00, 0x00, 0x00, 0x00, 0xf0, 0x01, 0x00, 0xc0, 0x0f, 0x06,
   0x00, 0x60, 0x84, 0x09, 0xc0, 0x58, 0x84, 0x30, 0x20, 0x4f, 0xfc, 0x21,
   0x20, 0x49, 0x86, 0x22, 0x20, 0x49, 0x85, 0x24, 0x20, 0xc9, 0x84, 0x38,
   0xe0, 0x79, 0x84, 0x10, 0xa0, 0x4f, 0xfc, 0x08, 0x20, 0x89, 0x4e, 0x08,
   0x20, 0x89, 0xc9, 0x09, 0xe0, 0xc9, 0x48, 0x06, 0x20, 0xff, 0x48, 0x04,
   0x20, 0x89, 0x48, 0x04, 0x20, 0x89, 0x4c, 0x04, 0x20, 0x89, 0xfa, 0x02,
   0x30, 0x89, 0xc9, 0x03, 0xf0, 0xff, 0x28, 0x02, 0x98, 0x88, 0x28, 0x02,
   0x88, 0x88, 0x28, 0x02, 0x50, 0x88, 0x3f, 0x02, 0x60, 0x78, 0x60, 0x02,
   0xc0, 0x07, 0x80, 0x03, 0x00, 0x00, 0x00, 0x02, 0x00, 0x00, 0x00, 0x00,
   0x00, 0x00, 0x00, 0x00, 0x00, 0x00, 0x00, 0x00};
