#define nurb_width 20
#define nurb_height 20
static unsigned char nurb_bits[] = {
   0x00, 0x00, 0x00, 0x00, 0x60, 0x00, 0x00, 0x98, 0x00, 0x00, 0x06, 0x03,
   0xc0, 0x01, 0x0c, 0x20, 0x00, 0x08, 0x20, 0x00, 0x08, 0x10, 0x00, 0x04,
   0x10, 0x00, 0x04, 0x08, 0x00, 0x02, 0x08, 0x00, 0x02, 0x04, 0x03, 0x01,
   0xc4, 0x04, 0x01, 0x32, 0x98, 0x00, 0x0e, 0xe0, 0x00, 0x00, 0x00, 0x00,
   0x00, 0x00, 0x00, 0x00, 0x00, 0x00, 0x00, 0x00, 0x00, 0x00, 0x00, 0x00};
