#define off_width 32
#define off_height 32
static unsigned char off_bits[] = {
   0x00, 0x00, 0x00, 0x00, 0x00, 0x00, 0x00, 0x00, 0x00, 0x00, 0x00, 0x00,
   0x00, 0x00, 0x00, 0x00, 0x80, 0x07, 0x00, 0x00, 0x60, 0x18, 0x00, 0x00,
   0x10, 0x20, 0x00, 0x00, 0x08, 0x40, 0x00, 0x00, 0x04, 0x80, 0x00, 0x00,
   0x02, 0x00, 0x01, 0x00, 0x02, 0x00, 0x01, 0x00, 0x02, 0x00, 0x01, 0x00,
   0x02, 0x00, 0x01, 0x00, 0x02, 0x00, 0x71, 0x38, 0x02, 0x00, 0x89, 0x44,
   0x02, 0x00, 0x89, 0x44, 0x02, 0x00, 0x09, 0x04, 0x02, 0x00, 0x09, 0x04,
   0x02, 0x00, 0x39, 0x1c, 0x02, 0x00, 0x09, 0x04, 0x02, 0x00, 0x09, 0x04,
   0x04, 0x80, 0x08, 0x04, 0x08, 0x40, 0x08, 0x04, 0x10, 0x20, 0x08, 0x04,
   0x60, 0x18, 0x00, 0x00, 0x80, 0x07, 0x00, 0x00, 0x00, 0x00, 0x00, 0x00,
   0x00, 0x00, 0x00, 0x00, 0x00, 0x00, 0x00, 0x00, 0x00, 0x00, 0x00, 0x00,
   0x00, 0x00, 0x00, 0x00, 0x00, 0x00, 0x00, 0x00};
