#define particles_width 32
#define particles_height 32
static unsigned char particles_bits[] = {
   0x01, 0x00, 0x00, 0x00, 0x02, 0x00, 0x01, 0x00, 0x04, 0x00, 0x02, 0x00,
   0x08, 0x00, 0x04, 0x10, 0x10, 0x00, 0x08, 0x20, 0x20, 0x01, 0x10, 0x40,
   0x40, 0x01, 0x20, 0x81, 0x80, 0x01, 0x40, 0x01, 0xe0, 0x01, 0x80, 0x01,
   0x00, 0x00, 0xe0, 0x01, 0x00, 0x00, 0x00, 0x00, 0x00, 0x00, 0x00, 0x00,
   0x08, 0x00, 0x00, 0x00, 0x10, 0x40, 0x00, 0x00, 0x20, 0x80, 0x00, 0x00,
   0x40, 0x02, 0x01, 0x00, 0x80, 0x02, 0x02, 0x08, 0x00, 0x03, 0x04, 0x10,
   0xc0, 0x03, 0x08, 0x20, 0x00, 0x00, 0x10, 0x40, 0x00, 0x00, 0x20, 0x80,
   0x00, 0x00, 0x40, 0x02, 0x02, 0x00, 0x80, 0x02, 0x04, 0x00, 0x00, 0x03,
   0x08, 0x00, 0xc0, 0x03, 0x10, 0x00, 0x00, 0x00, 0x20, 0x01, 0x00, 0x00,
   0x40, 0x01, 0x02, 0x00, 0x80, 0x01, 0x04, 0x00, 0xe0, 0x01, 0x08, 0x00,
   0x00, 0x00, 0x10, 0x00, 0x00, 0x00, 0x20, 0x00};
