#define points_width 32
#define points_height 32
static unsigned char points_bits[] = {
   0x00, 0x00, 0x00, 0x00, 0x00, 0x00, 0x01, 0x00, 0x00, 0x10, 0x00, 0x00,
   0x00, 0x02, 0x04, 0x00, 0x00, 0x00, 0x20, 0x00, 0x00, 0x00, 0x00, 0x00,
   0x40, 0x00, 0x00, 0x01, 0x00, 0x00, 0x00, 0x00, 0x00, 0x00, 0x00, 0x00,
   0x10, 0x00, 0x00, 0x04, 0x00, 0x00, 0x00, 0x00, 0x08, 0x04, 0x12, 0x08,
   0x00, 0x81, 0x80, 0x00, 0x00, 0x10, 0x00, 0x00, 0x88, 0x00, 0x00, 0x0a,
   0x00, 0x00, 0x00, 0x00, 0x00, 0x00, 0x04, 0x0a, 0x88, 0x80, 0x10, 0x00,
   0x00, 0x00, 0x00, 0x00, 0x08, 0x20, 0x00, 0x05, 0x80, 0x00, 0x20, 0x00,
   0x00, 0x00, 0x80, 0x02, 0x10, 0x41, 0x08, 0x00, 0x00, 0x00, 0x41, 0x00,
   0x20, 0x04, 0x10, 0x01, 0x00, 0x20, 0x05, 0x00, 0x40, 0x00, 0x40, 0x00,
   0x00, 0x00, 0x00, 0x00, 0x00, 0x04, 0x08, 0x00, 0x00, 0x40, 0x00, 0x00,
   0x00, 0x00, 0x00, 0x00, 0x00, 0x00, 0x00, 0x00};
