#define polys_width 32
#define polys_height 32
static unsigned char polys_bits[] = {
   0x00, 0x00, 0x00, 0x00, 0x00, 0x00, 0x00, 0x00, 0x00, 0x00, 0x80, 0x01,
   0x00, 0x00, 0x78, 0x01, 0x00, 0x80, 0x07, 0x02, 0x00, 0x60, 0x00, 0x02,
   0x00, 0xf0, 0x00, 0x02, 0x00, 0x28, 0x01, 0x04, 0x00, 0x24, 0x06, 0x04,
   0x00, 0x12, 0x08, 0x04, 0x00, 0x11, 0x30, 0x04, 0x80, 0x10, 0x40, 0x08,
   0x40, 0x10, 0x80, 0x09, 0x20, 0x10, 0x00, 0x0a, 0x10, 0x10, 0x00, 0x1c,
   0x08, 0x08, 0x00, 0x1c, 0x04, 0x08, 0xf0, 0x13, 0x3e, 0xc8, 0x0f, 0x08,
   0xc4, 0x3f, 0x00, 0x08, 0x08, 0x38, 0x00, 0x08, 0x10, 0xc8, 0x00, 0x08,
   0x20, 0x08, 0x03, 0x04, 0x40, 0x08, 0x04, 0x04, 0x80, 0x10, 0x18, 0x04,
   0x00, 0x11, 0x60, 0x04, 0x00, 0x12, 0x80, 0x03, 0x00, 0x14, 0xc0, 0x03,
   0x00, 0x18, 0x3f, 0x00, 0x00, 0xf0, 0x00, 0x00, 0x00, 0x00, 0x00, 0x00,
   0x00, 0x00, 0x00, 0x00, 0x00, 0x00, 0x00, 0x00};
