#define ray_track_width 32
#define ray_track_height 32
static unsigned char ray_track_bits[] = {
   0x00, 0x00, 0x00, 0x00, 0x02, 0x00, 0x00, 0x00, 0x06, 0x00, 0x00, 0x00,
   0x0c, 0x00, 0x00, 0x00, 0x18, 0x00, 0x00, 0x00, 0x30, 0x00, 0xff, 0xff,
   0x60, 0x00, 0x01, 0x01, 0xc0, 0x00, 0x01, 0x01, 0x80, 0x01, 0x01, 0x01,
   0x00, 0x03, 0x01, 0x01, 0x00, 0x06, 0x01, 0x01, 0x00, 0x0c, 0x01, 0x01,
   0x00, 0x18, 0x01, 0x01, 0x00, 0x30, 0x01, 0x01, 0x80, 0xff, 0xff, 0xff,
   0x80, 0xc0, 0x01, 0x01, 0x80, 0x80, 0x01, 0x01, 0x80, 0x00, 0x03, 0x01,
   0x80, 0x00, 0x07, 0x01, 0x80, 0x00, 0x0d, 0x01, 0x80, 0x00, 0x19, 0x01,
   0x80, 0x00, 0x31, 0x01, 0x80, 0xff, 0x67, 0x00, 0x80, 0x00, 0xc1, 0x00,
   0x80, 0x00, 0x81, 0x09, 0x80, 0x00, 0x01, 0x0b, 0x80, 0x00, 0x01, 0x0f,
   0x80, 0x00, 0x01, 0x0c, 0x80, 0x00, 0x81, 0x0f, 0x80, 0x00, 0x01, 0x00,
   0x80, 0xff, 0x01, 0x00, 0x00, 0x00, 0x00, 0x00};
