#define slice_width 32
#define slice_height 32
static unsigned char slice_bits[] = {
   0x00, 0x00, 0x00, 0x00, 0x00, 0x00, 0x00, 0x00, 0x00, 0xc0, 0x01, 0x00,
   0x00, 0x20, 0x02, 0x00, 0x00, 0x20, 0x02, 0x00, 0x00, 0x1c, 0x1c, 0x00,
   0x00, 0x03, 0x60, 0x00, 0x80, 0xe0, 0x83, 0x00, 0x40, 0x18, 0x0c, 0x01,
   0x40, 0x04, 0x10, 0x01, 0x20, 0x02, 0x20, 0x02, 0x10, 0x01, 0x40, 0x04,
   0x10, 0x01, 0x80, 0x04, 0x90, 0x00, 0x00, 0x05, 0x90, 0x00, 0x00, 0x05,
   0x90, 0x00, 0x00, 0x05, 0x90, 0x00, 0x00, 0x05, 0x90, 0x00, 0x00, 0x05,
   0x90, 0x00, 0x18, 0x05, 0x90, 0x00, 0x24, 0x05, 0x90, 0x00, 0x24, 0x05,
   0x90, 0x00, 0xa2, 0x04, 0x20, 0x01, 0x92, 0x02, 0x20, 0x01, 0x4c, 0x02,
   0x20, 0x02, 0x40, 0x02, 0x40, 0x1c, 0x20, 0x01, 0x80, 0xe0, 0x9f, 0x00,
   0x00, 0x01, 0x40, 0x00, 0x00, 0x06, 0x30, 0x00, 0x00, 0xf8, 0x0f, 0x00,
   0x00, 0x00, 0x00, 0x00, 0x00, 0x00, 0x00, 0x00};
