#define stop_width 11
#define stop_height 11
static unsigned char stop_bits[] = {
   0x00, 0x00, 0x00, 0x00, 0xfc, 0x01, 0xfc, 0x01, 0xfc, 0x01, 0xfc, 0x01,
   0xfc, 0x01, 0xfc, 0x01, 0xfc, 0x01, 0x00, 0x00, 0x00, 0x00};
