#define texture_width 32
#define texture_height 32
static unsigned char texture_bits[] = {
   0x00, 0x00, 0x00, 0x00, 0x00, 0xf0, 0x03, 0x00, 0x00, 0x18, 0x04, 0x00,
   0x00, 0x0c, 0x0c, 0x00, 0x00, 0x04, 0x08, 0x00, 0x00, 0x04, 0x08, 0x00,
   0x00, 0x84, 0x09, 0x00, 0x00, 0x44, 0x09, 0x00, 0x00, 0x88, 0x0c, 0x00,
   0x00, 0x18, 0x06, 0x00, 0x00, 0xf0, 0x03, 0x00, 0x00, 0x00, 0x00, 0x00,
   0x00, 0x00, 0x00, 0x00, 0x00, 0x40, 0x00, 0x00, 0x00, 0x40, 0x00, 0x00,
   0x00, 0x40, 0x00, 0x00, 0x00, 0x40, 0x00, 0x00, 0x00, 0x50, 0x01, 0x00,
   0x00, 0xe0, 0x00, 0x00, 0x00, 0x40, 0x00, 0x00, 0x00, 0x00, 0x00, 0x00,
   0x00, 0x00, 0x00, 0x00, 0x00, 0x00, 0x00, 0x00, 0xf0, 0xff, 0x3f, 0x00,
   0x20, 0x00, 0x40, 0x00, 0x40, 0x00, 0x80, 0x00, 0x80, 0x00, 0x00, 0x01,
   0x00, 0x01, 0x00, 0x02, 0x00, 0x02, 0x00, 0x04, 0x00, 0x04, 0x00, 0x08,
   0x00, 0xf8, 0xff, 0x1f, 0x00, 0x00, 0x00, 0x00};
