#define transparency_width 32
#define transparency_height 32
static unsigned char transparency_bits[] = {
   0x00, 0x00, 0x00, 0x00, 0x00, 0x00, 0x00, 0x00, 0x00, 0x00, 0x00, 0x00,
   0x00, 0x80, 0x00, 0x00, 0x00, 0x80, 0x01, 0x00, 0x00, 0x80, 0x02, 0x00,
   0x00, 0x80, 0x04, 0x00, 0x00, 0x80, 0x08, 0x00, 0x00, 0x80, 0x10, 0x00,
   0x80, 0x80, 0x10, 0x00, 0xc0, 0x80, 0x10, 0x00, 0x40, 0x80, 0x10, 0x00,
   0x60, 0x80, 0x10, 0x00, 0xb0, 0x80, 0x10, 0x08, 0x1e, 0x81, 0x10, 0x10,
   0x06, 0xf9, 0xf3, 0x3f, 0x1e, 0x81, 0x10, 0x10, 0xb0, 0x80, 0x10, 0x08,
   0x60, 0x80, 0x10, 0x00, 0x40, 0x80, 0x10, 0x00, 0xc0, 0x80, 0x10, 0x00,
   0x80, 0x80, 0x10, 0x00, 0x00, 0x80, 0x10, 0x00, 0x00, 0x80, 0x10, 0x00,
   0x00, 0x00, 0x11, 0x00, 0x00, 0x00, 0x12, 0x00, 0x00, 0x00, 0x14, 0x00,
   0x00, 0x00, 0x18, 0x00, 0x00, 0x00, 0x10, 0x00, 0x00, 0x00, 0x00, 0x00,
   0x00, 0x00, 0x00, 0x00, 0x00, 0x00, 0x00, 0x00};
