#define view_params_width 32
#define view_params_height 32
static unsigned char view_params_bits[] = {
   0x00, 0x00, 0x00, 0x00, 0x00, 0x00, 0x38, 0x00, 0x00, 0x00, 0x44, 0x00,
   0x00, 0x00, 0x7c, 0x00, 0x00, 0x00, 0x44, 0x00, 0x00, 0x00, 0x38, 0x00,
   0x00, 0x80, 0x00, 0x02, 0x00, 0x00, 0x01, 0x01, 0x00, 0x00, 0x82, 0x00,
   0x00, 0x00, 0x44, 0x00, 0x00, 0x00, 0x28, 0x00, 0x00, 0x00, 0x10, 0x00,
   0x00, 0x00, 0x00, 0x00, 0x00, 0x00, 0x00, 0x00, 0x00, 0x00, 0x00, 0x00,
   0x00, 0x00, 0x00, 0x00, 0x00, 0x00, 0xfc, 0x7f, 0x00, 0x00, 0x0a, 0x58,
   0x00, 0x00, 0x09, 0x46, 0x00, 0x80, 0xc8, 0x41, 0x00, 0x40, 0x38, 0x40,
   0x00, 0x20, 0x0c, 0x40, 0x00, 0x90, 0x0b, 0x40, 0x80, 0x68, 0x08, 0x40,
   0xc0, 0x1c, 0x08, 0x40, 0x30, 0x7e, 0x08, 0x40, 0x58, 0xf0, 0xff, 0x41,
   0x30, 0x00, 0xfe, 0x7f, 0xc0, 0x00, 0x00, 0x00, 0x80, 0x00, 0x00, 0x00,
   0x00, 0x00, 0x00, 0x00, 0x00, 0x00, 0x00, 0x00};
