#define view_width 32
#define view_height 32
static unsigned char view_bits[] = {
   0x00, 0x00, 0x00, 0x00, 0x00, 0x00, 0x00, 0x00, 0x00, 0x00, 0x00, 0x00,
   0x00, 0x00, 0x00, 0x00, 0x00, 0x00, 0x10, 0x00, 0x00, 0x00, 0x10, 0x00,
   0x00, 0x00, 0x10, 0x00, 0x00, 0x00, 0x08, 0x00, 0x00, 0x00, 0x04, 0x00,
   0x00, 0x00, 0x06, 0x00, 0x00, 0x80, 0x01, 0x00, 0x00, 0xc0, 0x02, 0x00,
   0x00, 0x38, 0x04, 0x00, 0x00, 0x0f, 0x08, 0x00, 0xf0, 0x00, 0x0e, 0x00,
   0xf0, 0x00, 0x0e, 0x00, 0xf0, 0x00, 0x08, 0x00, 0x00, 0x0f, 0x08, 0x00,
   0x00, 0x38, 0x04, 0x00, 0x00, 0xc0, 0x02, 0x00, 0x00, 0x80, 0x01, 0x00,
   0x00, 0x00, 0x06, 0x00, 0x00, 0x00, 0x04, 0x00, 0x00, 0x00, 0x08, 0x00,
   0x00, 0x00, 0x10, 0x00, 0x00, 0x00, 0x10, 0x00, 0x00, 0x00, 0x10, 0x00,
   0x00, 0x00, 0x00, 0x00, 0x00, 0x00, 0x00, 0x00, 0x00, 0x00, 0x00, 0x00,
   0x00, 0x00, 0x00, 0x00, 0x00, 0x00, 0x00, 0x00};
