#define axial_width 32
#define axial_height 32
static unsigned char axial_bits[] = {
   0x00, 0x00, 0x00, 0x00, 0x00, 0x80, 0x00, 0x00, 0x00, 0xc0, 0x01, 0x00,
   0x00, 0xa0, 0x02, 0x00, 0x00, 0x80, 0x00, 0x00, 0x00, 0x80, 0x00, 0x00,
   0x00, 0x80, 0x00, 0x00, 0x00, 0x00, 0x00, 0x00, 0x00, 0xfc, 0xff, 0x0f,
   0x00, 0x02, 0x00, 0x04, 0x00, 0x01, 0x00, 0x02, 0x80, 0x00, 0x00, 0x01,
   0x40, 0x00, 0x80, 0x0f, 0x20, 0x00, 0x40, 0x04, 0x10, 0x00, 0x20, 0x02,
   0xf8, 0xff, 0x1f, 0x01, 0x40, 0x00, 0x80, 0x0f, 0x20, 0x00, 0x40, 0x04,
   0x10, 0x00, 0x20, 0x02, 0xf8, 0xff, 0x1f, 0x01, 0x40, 0x00, 0x80, 0x00,
   0x20, 0x00, 0x40, 0x00, 0x10, 0x00, 0x20, 0x00, 0xf8, 0xff, 0x1f, 0x00,
   0x00, 0x00, 0x00, 0x00, 0x00, 0x80, 0x00, 0x00, 0x00, 0x80, 0x00, 0x00,
   0x00, 0x80, 0x00, 0x00, 0x00, 0xa0, 0x02, 0x00, 0x00, 0xc0, 0x01, 0x00,
   0x00, 0x80, 0x00, 0x00, 0x00, 0x00, 0x00, 0x00};
