#define b3_curs_width 27
#define b3_curs_height 27
static unsigned char b3_curs_bits[] = {
   0x00, 0x00, 0x00, 0x00, 0x1e, 0x00, 0xc0, 0x03, 0x06, 0x00, 0x00, 0x03,
   0x02, 0x00, 0x00, 0x02, 0x02, 0x00, 0x00, 0x02, 0x00, 0x00, 0x00, 0x00,
   0x00, 0x00, 0x00, 0x00, 0x00, 0x00, 0x00, 0x00, 0x00, 0x00, 0x00, 0x00,
   0x00, 0x00, 0x00, 0x00, 0x00, 0x20, 0x00, 0x00, 0x00, 0xd8, 0x00, 0x00,
   0x00, 0x88, 0x00, 0x00, 0x00, 0x04, 0x01, 0x00, 0x00, 0x88, 0x00, 0x00,
   0x00, 0xd8, 0x00, 0x00, 0x00, 0x20, 0x00, 0x00, 0x00, 0x00, 0x00, 0x00,
   0x00, 0x00, 0x00, 0x00, 0x00, 0x00, 0x00, 0x00, 0x00, 0x00, 0x00, 0x00,
   0x00, 0x00, 0x00, 0x00, 0x02, 0x00, 0x00, 0x02, 0x02, 0x00, 0x00, 0x02,
   0x06, 0x00, 0x00, 0x03, 0x1e, 0x00, 0xc0, 0x03, 0x00, 0x00, 0x00, 0x00};
