#define b4_width 27
#define b4_height 27
static unsigned char b4_bits[] = {
   0x00, 0x00, 0x00, 0x00, 0x00, 0x00, 0x00, 0x00, 0x00, 0x00, 0x00, 0x00,
   0x00, 0x00, 0x00, 0x00, 0x00, 0x00, 0x00, 0x00, 0x00, 0x00, 0x00, 0x00,
   0x00, 0x00, 0x00, 0x00, 0x00, 0x70, 0x00, 0x00, 0x00, 0xfc, 0x01, 0x00,
   0x00, 0xfe, 0x03, 0x00, 0x00, 0xff, 0x07, 0x00, 0x00, 0xff, 0x07, 0x00,
   0x80, 0xff, 0x0f, 0x00, 0x80, 0xff, 0x0f, 0x00, 0x80, 0xff, 0x0f, 0x00,
   0x00, 0xff, 0x07, 0x00, 0x00, 0xff, 0x07, 0x00, 0x00, 0xfe, 0x03, 0x00,
   0x00, 0xfc, 0x01, 0x00, 0x00, 0x70, 0x00, 0x00, 0x00, 0x00, 0x00, 0x00,
   0x00, 0x00, 0x00, 0x00, 0x00, 0x00, 0x00, 0x00, 0x00, 0x00, 0x00, 0x00,
   0x00, 0x00, 0x00, 0x00, 0x00, 0x00, 0x00, 0x00, 0x00, 0x00, 0x00, 0x00};
