#define b4_cursb_width 27
#define b4_cursb_height 27
static unsigned char b4_cursb_bits[] = {
   0x00, 0x00, 0x00, 0x00, 0x00, 0x00, 0x00, 0x00, 0x00, 0x00, 0x00, 0x00,
   0x00, 0x00, 0x00, 0x00, 0x00, 0x00, 0x00, 0x00, 0x00, 0x00, 0x00, 0x00,
   0x00, 0x70, 0x00, 0x00, 0x00, 0xf8, 0x00, 0x00, 0x00, 0xfe, 0x03, 0x00,
   0x00, 0x8f, 0x07, 0x00, 0x80, 0x07, 0x0f, 0x00, 0x80, 0x03, 0x0e, 0x00,
   0xc0, 0x01, 0x1c, 0x00, 0xc0, 0x01, 0x1c, 0x00, 0xc0, 0x01, 0x1c, 0x00,
   0x80, 0x03, 0x0e, 0x00, 0x80, 0x07, 0x0f, 0x00, 0x00, 0x8f, 0x07, 0x00,
   0x00, 0xfe, 0x03, 0x00, 0x00, 0xf8, 0x00, 0x00, 0x00, 0x70, 0x00, 0x00,
   0x00, 0x00, 0x00, 0x00, 0x00, 0x00, 0x00, 0x00, 0x00, 0x00, 0x00, 0x00,
   0x00, 0x00, 0x00, 0x00, 0x00, 0x00, 0x00, 0x00, 0x00, 0x00, 0x00, 0x00};
