#define b4_curs_width 27
#define b4_curs_height 27
static unsigned char b4_curs_bits[] = {
   0x00, 0x00, 0x00, 0x00, 0x00, 0x00, 0x00, 0x00, 0x00, 0x00, 0x00, 0x00,
   0x00, 0x00, 0x00, 0x00, 0x00, 0x00, 0x00, 0x00, 0x00, 0x00, 0x00, 0x00,
   0x00, 0x00, 0x00, 0x00, 0x00, 0x70, 0x00, 0x00, 0x00, 0x8c, 0x01, 0x00,
   0x00, 0x02, 0x02, 0x00, 0x00, 0x01, 0x04, 0x00, 0x00, 0x01, 0x04, 0x00,
   0x80, 0x00, 0x08, 0x00, 0x80, 0x00, 0x08, 0x00, 0x80, 0x00, 0x08, 0x00,
   0x00, 0x01, 0x04, 0x00, 0x00, 0x01, 0x04, 0x00, 0x00, 0x02, 0x02, 0x00,
   0x00, 0x8c, 0x01, 0x00, 0x00, 0x70, 0x00, 0x00, 0x00, 0x00, 0x00, 0x00,
   0x00, 0x00, 0x00, 0x00, 0x00, 0x00, 0x00, 0x00, 0x00, 0x00, 0x00, 0x00,
   0x00, 0x00, 0x00, 0x00, 0x00, 0x00, 0x00, 0x00, 0x00, 0x00, 0x00, 0x00};
