#define b5_curs_width 27
#define b5_curs_height 27
static unsigned char b5_curs_bits[] = {
   0x00, 0x00, 0x00, 0x00, 0x00, 0x20, 0x00, 0x00, 0x00, 0xde, 0x03, 0x00,
   0x80, 0x01, 0x0c, 0x00, 0x40, 0x00, 0x10, 0x00, 0x20, 0x00, 0x20, 0x00,
   0x10, 0x00, 0x40, 0x00, 0x08, 0x00, 0x80, 0x00, 0x08, 0x00, 0x80, 0x00,
   0x04, 0x00, 0x00, 0x01, 0x04, 0x00, 0x00, 0x01, 0x04, 0x00, 0x00, 0x01,
   0x04, 0x00, 0x00, 0x01, 0x02, 0x00, 0x00, 0x02, 0x04, 0x00, 0x00, 0x01,
   0x04, 0x00, 0x00, 0x01, 0x04, 0x00, 0x00, 0x01, 0x04, 0x00, 0x00, 0x01,
   0x08, 0x00, 0x80, 0x00, 0x08, 0x00, 0x80, 0x00, 0x10, 0x00, 0x40, 0x00,
   0x20, 0x00, 0x20, 0x00, 0x40, 0x00, 0x10, 0x00, 0x80, 0x01, 0x0c, 0x00,
   0x00, 0xde, 0x03, 0x00, 0x00, 0x20, 0x00, 0x00, 0x00, 0x00, 0x00, 0x00};
