#define copybody_width 32
#define copybody_height 32
static unsigned char copybody_bits[] = {
   0x00, 0x00, 0x00, 0x00, 0xe0, 0x03, 0x00, 0x00, 0x30, 0x06, 0x00, 0x00,
   0x10, 0x08, 0x00, 0x00, 0x18, 0x08, 0x00, 0x00, 0x04, 0x08, 0x00, 0x00,
   0x04, 0x08, 0x00, 0x00, 0x02, 0x08, 0x00, 0x00, 0x02, 0x08, 0x00, 0x00,
   0x02, 0x08, 0x00, 0x00, 0x02, 0x08, 0x00, 0x00, 0x02, 0x8e, 0x00, 0x00,
   0x82, 0x01, 0x01, 0x00, 0x82, 0x00, 0x0a, 0x00, 0x84, 0x00, 0x0c, 0x1f,
   0xc4, 0x00, 0x8e, 0x31, 0x48, 0x08, 0x80, 0x40, 0x78, 0x10, 0xc0, 0x40,
   0x00, 0xa0, 0x20, 0x40, 0x00, 0xc0, 0x20, 0x40, 0x00, 0xe0, 0x10, 0x40,
   0x00, 0x00, 0x10, 0x40, 0x00, 0x00, 0x10, 0x40, 0x00, 0x00, 0x10, 0x40,
   0x00, 0x00, 0x10, 0x70, 0x00, 0x00, 0x10, 0x0c, 0x00, 0x00, 0x10, 0x04,
   0x00, 0x00, 0x20, 0x04, 0x00, 0x00, 0x20, 0x06, 0x00, 0x00, 0x40, 0x02,
   0x00, 0x00, 0xc0, 0x03, 0x00, 0x00, 0x00, 0x00};
