#define coronal_width 32
#define coronal_height 32
static unsigned char coronal_bits[] = {
   0x00, 0x00, 0x00, 0x00, 0x00, 0x00, 0x01, 0x00, 0x00, 0x80, 0x03, 0x00,
   0x00, 0x40, 0x05, 0x00, 0x00, 0x00, 0x01, 0x00, 0x00, 0x00, 0x01, 0x00,
   0x00, 0xfe, 0xff, 0x00, 0x00, 0x02, 0x80, 0x00, 0x00, 0x02, 0x80, 0x00,
   0x80, 0xff, 0xbf, 0x00, 0x80, 0x00, 0xa0, 0x00, 0x80, 0x00, 0xa0, 0x00,
   0xe0, 0xff, 0xaf, 0x00, 0x20, 0x00, 0xa8, 0x00, 0x20, 0x00, 0xa8, 0x00,
   0x20, 0x00, 0xa8, 0x00, 0x20, 0x00, 0xa8, 0x00, 0x20, 0x00, 0xa8, 0x00,
   0x20, 0x00, 0xa8, 0x00, 0x20, 0x00, 0xa8, 0x00, 0x20, 0x10, 0xe8, 0x00,
   0x20, 0x10, 0x28, 0x00, 0x20, 0x10, 0x28, 0x00, 0x20, 0x10, 0x38, 0x00,
   0x20, 0x10, 0x08, 0x00, 0x20, 0x10, 0x08, 0x00, 0xe0, 0xff, 0x0f, 0x00,
   0x00, 0x10, 0x00, 0x00, 0x00, 0x10, 0x00, 0x00, 0x00, 0x54, 0x00, 0x00,
   0x00, 0x38, 0x00, 0x00, 0x00, 0x10, 0x00, 0x00};
