#define grow_width 32
#define grow_height 32
static unsigned char grow_bits[] = {
   0x00, 0x00, 0x00, 0x00, 0x00, 0x80, 0x00, 0x00, 0x00, 0xc0, 0x01, 0x00,
   0x00, 0xe0, 0x03, 0x00, 0x00, 0xa0, 0x02, 0x00, 0x00, 0x80, 0x00, 0x00,
   0x00, 0x80, 0x00, 0x00, 0x00, 0x80, 0x00, 0x00, 0x00, 0x00, 0x00, 0x00,
   0x00, 0xe0, 0x07, 0x00, 0x00, 0x18, 0x18, 0x00, 0x00, 0x04, 0x20, 0x00,
   0x00, 0x02, 0x40, 0x00, 0x00, 0x02, 0x40, 0x00, 0x00, 0x04, 0x20, 0x00,
   0x00, 0x1c, 0x38, 0x00, 0x00, 0xe2, 0x47, 0x00, 0x00, 0x02, 0x40, 0x00,
   0x00, 0x04, 0x20, 0x00, 0x00, 0x1c, 0x38, 0x00, 0x00, 0xe2, 0x47, 0x00,
   0x00, 0x02, 0x40, 0x00, 0x00, 0x04, 0x20, 0x00, 0x00, 0x1c, 0x18, 0x00,
   0x00, 0xe0, 0x07, 0x00, 0x00, 0x00, 0x00, 0x00, 0x00, 0x80, 0x00, 0x00,
   0x00, 0xa0, 0x02, 0x00, 0x00, 0xe0, 0x03, 0x00, 0x00, 0xc0, 0x01, 0x00,
   0x00, 0x80, 0x00, 0x00, 0x00, 0x00, 0x00, 0x00};
