#define make_margin_width 32
#define make_margin_height 32
static unsigned char make_margin_bits[] = {
   0x00, 0x00, 0x00, 0x00, 0x00, 0xfe, 0xff, 0x01, 0x00, 0x03, 0x00, 0x06,
   0xc0, 0x01, 0x00, 0x0c, 0x60, 0x80, 0x00, 0x18, 0x30, 0xc0, 0x01, 0x10,
   0x18, 0xa0, 0x02, 0x10, 0x04, 0x80, 0x00, 0x10, 0x04, 0x80, 0x00, 0x10,
   0x02, 0x80, 0x00, 0x10, 0x02, 0x00, 0x00, 0x10, 0x02, 0xe0, 0x0f, 0x10,
   0x02, 0x30, 0x18, 0x10, 0x42, 0x18, 0x10, 0x11, 0x22, 0x08, 0x10, 0x12,
   0xf2, 0x0b, 0xd0, 0x17, 0x22, 0x08, 0x18, 0x12, 0x42, 0x08, 0x0c, 0x11,
   0x02, 0x08, 0x04, 0x08, 0x02, 0x10, 0x06, 0x04, 0x02, 0x60, 0x02, 0x04,
   0x04, 0xc0, 0x01, 0x06, 0x0c, 0x00, 0x00, 0x01, 0x08, 0x80, 0x00, 0x01,
   0x10, 0x80, 0x00, 0x01, 0x20, 0x80, 0x00, 0x01, 0x40, 0xa0, 0x82, 0x01,
   0x80, 0xc0, 0x81, 0x00, 0x00, 0x83, 0xc0, 0x00, 0x00, 0x06, 0x40, 0x00,
   0x00, 0x0c, 0x40, 0x00, 0x00, 0xf8, 0x3f, 0x00};
