#define paint2_width 32
#define paint2_height 32
static unsigned char paint2_bits[] = {
   0x00, 0x00, 0xe4, 0x2f, 0x00, 0x00, 0x73, 0x57, 0x00, 0x00, 0xbb, 0xab,
   0x00, 0x00, 0xdc, 0x5f, 0x00, 0x00, 0xef, 0xe0, 0x00, 0x80, 0x37, 0x00,
   0x00, 0x80, 0x4b, 0x00, 0x00, 0x00, 0x25, 0x03, 0x00, 0x80, 0x26, 0x03,
   0x00, 0x40, 0x4f, 0x04, 0x00, 0xa0, 0x39, 0x00, 0x00, 0xd0, 0xd8, 0xe3,
   0x00, 0x68, 0xb0, 0xbf, 0x00, 0x34, 0x50, 0x5c, 0x00, 0x1c, 0x20, 0x14,
   0x00, 0x08, 0x20, 0x13, 0x80, 0x04, 0xc0, 0xe0, 0xc0, 0x03, 0x00, 0x00,
   0xf0, 0x00, 0x00, 0x00, 0xf8, 0x00, 0x00, 0x00, 0xfc, 0x00, 0x00, 0x00,
   0x7e, 0x00, 0x00, 0x00, 0x1e, 0x00, 0x00, 0x00, 0x00, 0x00, 0x00, 0x00,
   0x00, 0x00, 0x00, 0x00, 0x00, 0x00, 0x00, 0x00, 0x00, 0x00, 0x00, 0x00,
   0x00, 0x00, 0x00, 0x00, 0x00, 0x00, 0x00, 0x00, 0x00, 0x00, 0x00, 0x00,
   0x00, 0x00, 0x00, 0x00, 0x00, 0x00, 0x00, 0x00};
