#define sagittal_width 32
#define sagittal_height 32
static unsigned char sagittal_bits[] = {
   0x00, 0x00, 0x00, 0x00, 0x00, 0x00, 0x00, 0x00, 0x00, 0x00, 0x00, 0x00,
   0x00, 0x00, 0x00, 0x00, 0x00, 0x00, 0x00, 0x00, 0x00, 0x20, 0x84, 0x00,
   0x00, 0x30, 0xc6, 0x00, 0x00, 0x28, 0xa5, 0x00, 0x00, 0xa4, 0x94, 0x00,
   0x00, 0x62, 0x8c, 0x00, 0x00, 0x21, 0x84, 0x00, 0x88, 0x10, 0x82, 0x10,
   0x84, 0x10, 0x82, 0x20, 0xbe, 0x10, 0x82, 0x7e, 0x84, 0x10, 0x82, 0x20,
   0x88, 0x10, 0x82, 0x10, 0x80, 0x10, 0x82, 0x00, 0x80, 0x10, 0x82, 0x00,
   0x80, 0x10, 0x82, 0x00, 0x80, 0x10, 0x42, 0x00, 0x80, 0x18, 0x23, 0x00,
   0x80, 0x94, 0x12, 0x00, 0x80, 0x52, 0x0a, 0x00, 0x80, 0x31, 0x06, 0x00,
   0x80, 0x10, 0x02, 0x00, 0x00, 0x00, 0x00, 0x00, 0x00, 0x00, 0x00, 0x00,
   0x00, 0x00, 0x00, 0x00, 0x00, 0x00, 0x00, 0x00, 0x00, 0x00, 0x00, 0x00,
   0x00, 0x00, 0x00, 0x00, 0x00, 0x00, 0x00, 0x00};
