#define save_off_width 64
#define save_off_height 64
static unsigned char save_off_bits[] = {
   0x00, 0x00, 0x00, 0x00, 0x00, 0x00, 0x00, 0x00, 0x00, 0x00, 0x00, 0x00,
   0x00, 0x00, 0x00, 0x00, 0x00, 0x00, 0x00, 0x00, 0x00, 0x00, 0x00, 0x00,
   0x00, 0x00, 0x00, 0x00, 0x00, 0x00, 0x00, 0x00, 0x00, 0x00, 0x00, 0x00,
   0x00, 0x00, 0x00, 0x00, 0x00, 0x00, 0x00, 0x00, 0x00, 0x00, 0x00, 0x00,
   0x00, 0x00, 0x00, 0x00, 0x00, 0x00, 0x00, 0x00, 0x00, 0x00, 0x00, 0xf8,
   0x3f, 0x00, 0x00, 0x00, 0x00, 0x00, 0x00, 0xff, 0xff, 0x01, 0x00, 0x00,
   0x00, 0x00, 0xc0, 0xff, 0xff, 0x0f, 0x00, 0x00, 0x00, 0x00, 0xf0, 0x8f,
   0x80, 0x3f, 0x00, 0x00, 0x00, 0x00, 0xfc, 0x04, 0x01, 0x7c, 0x00, 0x00,
   0x00, 0x00, 0x3e, 0x88, 0x00, 0xf0, 0x00, 0x00, 0x00, 0x00, 0x1f, 0x70,
   0x00, 0xe0, 0x03, 0x00, 0x00, 0x80, 0x1f, 0xfe, 0x01, 0xc0, 0x07, 0x00,
   0x00, 0xc0, 0xbf, 0x01, 0x06, 0x80, 0x0f, 0x00, 0x00, 0xe0, 0x79, 0x30,
   0x18, 0x00, 0x0f, 0x00, 0x00, 0xf0, 0x78, 0x30, 0x20, 0x00, 0x1e, 0x00,
   0x00, 0x78, 0xf8, 0x00, 0x44, 0x00, 0x3c, 0x00, 0x00, 0x38, 0xe4, 0x01,
   0x80, 0x00, 0x78, 0x00, 0x00, 0x1c, 0xc2, 0x31, 0x00, 0x01, 0x70, 0x00,
   0x00, 0x1c, 0xc1, 0x33, 0x00, 0x02, 0xe0, 0x00, 0x00, 0x0e, 0x81, 0x37,
   0x00, 0x02, 0xe0, 0x00, 0x00, 0x8e, 0x04, 0x3f, 0x80, 0x04, 0xc0, 0x01,
   0x00, 0x87, 0x00, 0x3e, 0x00, 0x04, 0xc0, 0x01, 0x00, 0x47, 0x00, 0x3e,
   0x00, 0x08, 0xc0, 0x01, 0x00, 0x47, 0x00, 0x3c, 0x00, 0x08, 0xc0, 0x03,
   0x00, 0x47, 0x00, 0x78, 0x00, 0x08, 0x80, 0x03, 0x80, 0x47, 0x03, 0x70,
   0x00, 0x0b, 0xa0, 0x03, 0x80, 0x47, 0x03, 0xf0, 0x00, 0x0b, 0x90, 0x03,
   0x80, 0x43, 0x00, 0xe0, 0x01, 0x08, 0x88, 0x03, 0x80, 0x43, 0x00, 0xc0,
   0x03, 0x08, 0x84, 0x03, 0x80, 0x43, 0x00, 0x80, 0x03, 0x08, 0x82, 0x03,
   0x80, 0x83, 0x00, 0x00, 0x07, 0x04, 0x81, 0x03, 0x80, 0x83, 0x08, 0x00,
   0x9f, 0x84, 0xa0, 0x03, 0x80, 0x03, 0x01, 0x00, 0x3e, 0x42, 0xd0, 0x03,
   0x80, 0x07, 0x01, 0x00, 0x7c, 0x22, 0xa8, 0x03, 0x80, 0x07, 0x02, 0x00,
   0x38, 0x11, 0xd4, 0x03, 0x00, 0x07, 0x84, 0x00, 0xf8, 0x08, 0xea, 0x01,
   0x00, 0x07, 0x08, 0x00, 0xf4, 0x04, 0xd5, 0x01, 0x00, 0x07, 0x30, 0x30,
   0xe0, 0x82, 0xea, 0x01, 0x00, 0x0e, 0x60, 0x30, 0xd8, 0x41, 0xd5, 0x00,
   0x00, 0x0e, 0x80, 0x01, 0xc6, 0xa3, 0xea, 0x00, 0x00, 0x1e, 0x00, 0xfe,
   0xc1, 0x57, 0xe5, 0x00, 0x00, 0x1c, 0x00, 0x00, 0xe0, 0xaf, 0x72, 0x00,
   0x00, 0x3c, 0x00, 0x00, 0x20, 0x5f, 0x71, 0x00, 0x00, 0x78, 0x00, 0x00,
   0x10, 0xbe, 0x38, 0x00, 0x00, 0xf0, 0x90, 0x20, 0x10, 0x7c, 0x18, 0x00,
   0x00, 0xe0, 0x91, 0x20, 0x08, 0x38, 0x0c, 0x00, 0x00, 0xe0, 0x11, 0x11,
   0x08, 0x78, 0x0f, 0x00, 0x00, 0xc0, 0x13, 0x11, 0x1c, 0xfc, 0x07, 0x00,
   0x00, 0x80, 0x1f, 0x0a, 0xbc, 0xe3, 0x03, 0x00, 0x00, 0x80, 0x3f, 0x0a,
   0x7e, 0xf0, 0x01, 0x00, 0x40, 0x12, 0x7f, 0x04, 0x06, 0x7c, 0x00, 0x00,
   0x00, 0x00, 0xf8, 0x03, 0x80, 0x3f, 0x00, 0x00, 0x00, 0x00, 0xe0, 0xff,
   0xff, 0x0f, 0x00, 0x00, 0x00, 0x00, 0x00, 0xff, 0xff, 0x01, 0x00, 0x00,
   0x00, 0x00, 0x00, 0xf8, 0x3f, 0x00, 0x00, 0x00, 0x00, 0x00, 0x00, 0x00,
   0x00, 0x00, 0x00, 0x00, 0x00, 0x00, 0x00, 0x00, 0x00, 0x00, 0x00, 0x00,
   0x00, 0x00, 0x00, 0x00, 0x00, 0x00, 0x00, 0x00, 0x00, 0x00, 0x00, 0x00,
   0x00, 0x00, 0x00, 0x00, 0x00, 0x00, 0x00, 0x00, 0x00, 0x00, 0x00, 0x00,
   0x00, 0x00, 0x00, 0x00, 0x00, 0x00, 0x00, 0x00};
