#define save_on_width 64
#define save_on_height 64
static unsigned char save_on_bits[] = {
   0x00, 0x00, 0x00, 0x00, 0x00, 0x00, 0x00, 0x00, 0x00, 0x00, 0x00, 0x00,
   0x00, 0x00, 0x00, 0x00, 0x00, 0x00, 0x00, 0x00, 0x00, 0x00, 0x00, 0x00,
   0x00, 0x00, 0x00, 0x00, 0x00, 0x00, 0x00, 0x00, 0x00, 0x00, 0x00, 0x00,
   0x00, 0x00, 0x00, 0x00, 0x00, 0x00, 0x00, 0x00, 0x00, 0x00, 0x00, 0x00,
   0x00, 0x00, 0x00, 0x00, 0x00, 0x00, 0x00, 0x00, 0x00, 0x00, 0x00, 0x00,
   0x00, 0x00, 0x00, 0x00, 0x00, 0x00, 0x00, 0x00, 0x00, 0x00, 0x00, 0x00,
   0x00, 0x00, 0x00, 0x70, 0x00, 0x00, 0x00, 0x00, 0x00, 0x00, 0x00, 0x88,
   0x00, 0x00, 0x00, 0x00, 0x00, 0x00, 0x00, 0x04, 0x01, 0x00, 0x00, 0x00,
   0x00, 0x00, 0x00, 0x88, 0x00, 0x00, 0x00, 0x00, 0x00, 0x00, 0x00, 0x70,
   0x00, 0x00, 0x00, 0x00, 0x00, 0x00, 0x00, 0xfe, 0x01, 0x00, 0x00, 0x00,
   0x00, 0x00, 0x80, 0x01, 0x06, 0x00, 0x00, 0x00, 0x00, 0x00, 0x60, 0x30,
   0x18, 0x00, 0x00, 0x00, 0x00, 0x00, 0x10, 0x30, 0x20, 0x00, 0x00, 0x00,
   0x00, 0x00, 0x88, 0x00, 0x44, 0x00, 0x00, 0x00, 0x00, 0x00, 0x04, 0x00,
   0x80, 0x00, 0x00, 0x00, 0x00, 0x00, 0x02, 0x30, 0x00, 0x01, 0x00, 0x00,
   0x00, 0x00, 0x01, 0x30, 0x00, 0x02, 0x00, 0x00, 0x00, 0x00, 0x01, 0x30,
   0x00, 0x02, 0x00, 0x00, 0x00, 0x80, 0x04, 0x30, 0x80, 0x04, 0x00, 0x00,
   0x00, 0x80, 0x00, 0x30, 0x00, 0x04, 0x00, 0x00, 0x00, 0x40, 0x00, 0x30,
   0x00, 0x08, 0x00, 0x00, 0x00, 0x40, 0x00, 0x30, 0x00, 0x08, 0x00, 0x00,
   0x00, 0x40, 0x00, 0x30, 0x00, 0x08, 0x00, 0x00, 0x00, 0x40, 0x03, 0x30,
   0x00, 0x0b, 0x20, 0x00, 0x00, 0x40, 0x03, 0x30, 0x00, 0x0b, 0x10, 0x00,
   0x00, 0x40, 0x00, 0x60, 0x00, 0x08, 0x08, 0x00, 0x00, 0x40, 0x00, 0xc0,
   0x01, 0x08, 0x04, 0x00, 0x00, 0x40, 0x00, 0x00, 0x03, 0x08, 0x02, 0x00,
   0x00, 0x80, 0x00, 0x00, 0x06, 0x04, 0x01, 0x00, 0x00, 0x80, 0x08, 0x00,
   0x9c, 0x84, 0x20, 0x00, 0x00, 0x00, 0x01, 0x00, 0x38, 0x42, 0x50, 0x01,
   0x00, 0x00, 0x01, 0x00, 0x60, 0x22, 0xa8, 0x02, 0x00, 0x00, 0x02, 0x00,
   0x00, 0x11, 0x54, 0x01, 0x00, 0x00, 0x84, 0x00, 0x80, 0x08, 0xaa, 0x00,
   0x00, 0x00, 0x08, 0x00, 0x44, 0x04, 0x55, 0x00, 0x00, 0x00, 0x10, 0x30,
   0x20, 0x82, 0x2a, 0x00, 0x00, 0x00, 0x60, 0x30, 0x18, 0x41, 0x15, 0x00,
   0x00, 0x00, 0x80, 0x01, 0x86, 0xa0, 0x0a, 0x00, 0x00, 0x00, 0x00, 0xfe,
   0x41, 0x50, 0x05, 0x00, 0x00, 0x00, 0x00, 0x00, 0xe0, 0xa9, 0x02, 0x00,
   0x00, 0x00, 0x00, 0x00, 0x20, 0x57, 0x01, 0x00, 0x00, 0x00, 0x00, 0x00,
   0x10, 0xac, 0x00, 0x00, 0x00, 0x80, 0x90, 0x20, 0x10, 0x58, 0x00, 0x00,
   0x00, 0x80, 0x90, 0x20, 0x08, 0x28, 0x00, 0x00, 0x00, 0x80, 0x10, 0x11,
   0x08, 0x18, 0x00, 0x00, 0x00, 0x80, 0x10, 0x11, 0x1c, 0x0c, 0x00, 0x00,
   0x00, 0x80, 0x10, 0x0a, 0xbc, 0x03, 0x00, 0x00, 0x00, 0x80, 0x19, 0x0a,
   0x7e, 0x00, 0x00, 0x00, 0x40, 0x12, 0x17, 0x04, 0x06, 0x00, 0x00, 0x00,
   0x00, 0x00, 0x00, 0x00, 0x00, 0x00, 0x00, 0x00, 0x00, 0x00, 0x00, 0x00,
   0x00, 0x00, 0x00, 0x00, 0x00, 0x00, 0x00, 0x00, 0x00, 0x00, 0x00, 0x00,
   0x00, 0x00, 0x00, 0x00, 0x00, 0x00, 0x00, 0x00, 0x00, 0x00, 0x00, 0x00,
   0x00, 0x00, 0x00, 0x00, 0x00, 0x00, 0x00, 0x00, 0x00, 0x00, 0x00, 0x00,
   0x00, 0x00, 0x00, 0x00, 0x00, 0x00, 0x00, 0x00, 0x00, 0x00, 0x00, 0x00,
   0x00, 0x00, 0x00, 0x00, 0x00, 0x00, 0x00, 0x00, 0x00, 0x00, 0x00, 0x00,
   0x00, 0x00, 0x00, 0x00, 0x00, 0x00, 0x00, 0x00};
