#define setup_width 32
#define setup_height 32
static unsigned char setup_bits[] = {
   0x00, 0x00, 0x00, 0x00, 0x00, 0x00, 0x00, 0x00, 0x00, 0x00, 0x00, 0x00,
   0xfc, 0x03, 0x00, 0x00, 0x0c, 0x07, 0x00, 0x00, 0x06, 0x0c, 0x00, 0x00,
   0x06, 0x00, 0x00, 0x00, 0x06, 0x00, 0x00, 0x00, 0x06, 0x00, 0x00, 0x00,
   0x06, 0x00, 0x00, 0x00, 0x06, 0x00, 0x00, 0x00, 0x06, 0x00, 0x00, 0x00,
   0x0e, 0x00, 0x00, 0x00, 0x0c, 0x00, 0x00, 0x00, 0x1c, 0x00, 0x00, 0x00,
   0x78, 0x00, 0x00, 0x00, 0xf0, 0x00, 0x00, 0x00, 0xc0, 0x01, 0x00, 0x00,
   0xc0, 0x07, 0x00, 0x00, 0x80, 0x07, 0x00, 0x00, 0x00, 0x0e, 0x00, 0x00,
   0x00, 0x1e, 0x00, 0x00, 0x00, 0x1c, 0x10, 0x00, 0x00, 0x9c, 0x39, 0x00,
   0x00, 0x58, 0x92, 0x32, 0x00, 0x58, 0x93, 0x4a, 0x00, 0x58, 0x90, 0x4a,
   0x04, 0x98, 0x13, 0x39, 0x0c, 0x1c, 0x00, 0x08, 0x3c, 0x0f, 0x00, 0x08,
   0xf8, 0x0f, 0x00, 0x08, 0xc0, 0x03, 0x00, 0x00};
