#define threshold_width 32
#define threshold_height 32
static unsigned char threshold_bits[] = {
   0x00, 0x00, 0x00, 0x00, 0x00, 0x00, 0x00, 0x00, 0xe0, 0x00, 0x00, 0x00,
   0x60, 0x20, 0x00, 0x00, 0x60, 0x10, 0x00, 0x00, 0xe0, 0xf9, 0x7f, 0x00,
   0x60, 0x10, 0x00, 0x00, 0x60, 0x20, 0x00, 0x00, 0xe0, 0x00, 0x00, 0x00,
   0x60, 0x00, 0x00, 0x00, 0x60, 0x00, 0x00, 0x00, 0xe0, 0x01, 0x00, 0x00,
   0x60, 0x00, 0x00, 0x00, 0x60, 0x00, 0x00, 0x00, 0xe0, 0x00, 0x00, 0x00,
   0x60, 0x00, 0x00, 0x00, 0x60, 0x00, 0x00, 0x00, 0xe0, 0x01, 0x00, 0x00,
   0x60, 0x00, 0x00, 0x00, 0x60, 0x00, 0x00, 0x00, 0xe0, 0x20, 0x00, 0x00,
   0x60, 0x10, 0x00, 0x00, 0x60, 0xf8, 0x7f, 0x00, 0xe0, 0x11, 0x00, 0x00,
   0x60, 0x20, 0x00, 0x00, 0x60, 0x00, 0x00, 0x00, 0xe0, 0x00, 0x00, 0x00,
   0x60, 0x00, 0x00, 0x00, 0x60, 0x00, 0x00, 0x00, 0xe0, 0x01, 0x00, 0x00,
   0x00, 0x00, 0x00, 0x00, 0x00, 0x00, 0x00, 0x00};
