#define wand_width 32
#define wand_height 32
static unsigned char wand_bits[] = {
   0x00, 0x00, 0x00, 0x00, 0x00, 0x00, 0x00, 0x00, 0x00, 0x00, 0x00, 0x00,
   0xa0, 0x00, 0x00, 0x00, 0x04, 0x00, 0x00, 0x00, 0x80, 0x00, 0x00, 0x00,
   0x10, 0x00, 0x00, 0x00, 0x3a, 0x01, 0x00, 0x00, 0x70, 0x04, 0x00, 0x00,
   0xe0, 0x00, 0x00, 0x00, 0xc2, 0x01, 0x00, 0x00, 0x88, 0x03, 0x00, 0x00,
   0x00, 0x07, 0x00, 0x00, 0x04, 0x0e, 0x00, 0x00, 0x20, 0x1c, 0x00, 0x00,
   0x00, 0x38, 0x00, 0x00, 0x00, 0x70, 0x00, 0x00, 0x00, 0xe0, 0x00, 0x00,
   0x00, 0xc0, 0x01, 0x00, 0x00, 0x80, 0x03, 0x00, 0x00, 0x00, 0x07, 0x00,
   0x00, 0x00, 0x0e, 0x00, 0x00, 0x00, 0x1c, 0x00, 0x00, 0x00, 0x38, 0x00,
   0x00, 0x00, 0x70, 0x00, 0x00, 0x00, 0xe0, 0x00, 0x00, 0x00, 0xc0, 0x01,
   0x00, 0x00, 0x80, 0x00, 0x00, 0x00, 0x00, 0x00, 0x00, 0x00, 0x00, 0x00,
   0x00, 0x00, 0x00, 0x00, 0x00, 0x00, 0x00, 0x00};
