/* XPM */
static char * plot_xpm[] = {
"48 48 5 1",
" 	c black",
".	c white",
"X	c red",
"Y	c forest green",
"Z	c blue",
"                                                ",
" .Y.........................................ZZ. ",
" .YY......................................ZZZ.. ",
"  .YY..................................ZZZ..... ",
" ...YY...............................ZZZ....... ",
"   ..YYY...........................ZZZ......... ",
" ......YY........................ZZZ........... ",
"  ......YY.....................ZZZ............. ",
" .........YY.................ZZZ............... ",
"  .........YY...............ZZ................X ",
" ...........YY............ZZZ................XX ",
"   ..........YYY.......ZZZZ................XXX. ",
" .............YYY....ZZZ.................XXX... ",
"  ..............YYY.ZZ..................XX..... ",
" ................YYYZ..................XX...... ",
"  ..............ZZZYY.................XX....... ",
" .............ZZZ...YY...............XX........ ",
"   ..........ZZ......YY.............XX......... ",
" ..........ZZZ........YYY..........XX.......... ",
"  .......ZZZ............YY........XX........... ",
" ......ZZZ...............YY......XX............ ",
"  ..ZZZZ..................YY....XX............. ",
" ..ZZ......................YY..XX.............. ",
"  ZZ........................YYXX............... ",
" ZZ..........................XYY............... ",
"  ..........................XX YY.............. ",
" .........................XXX...Y.............. ",
"  .......................XX.....YY............. ",
" .......................XX.......YY............ ",
"   ....................XX.........YYY.......... ",
" ....................XXX............YY......... ",
"  ..................XX..............YY......... ",
" .................XXX............... YY........ ",
"  ...............XX...................YY....... ",
" ...............XX.....................YY...... ",
"   ............XX.......................YY..... ",
" .............XX.........................YY.... ",
"  ...........XX...........................YYY.. ",
" ..........XXX..............................YY. ",
"  ........XX.................................YY ",
" .......XXX...................................Y ",
"   ....XX...................................... ",
" ....XXX....................................... ",
"  ..XX......................................... ",
" ..XX. ..... ..... ..... ..... ..... ..... .... ",
"  XX . . . . . . . . . . . . . . . . . . . . .. ",
" . . . . . . . . . . . . . . . . . . . . . . .. ",
"                                                "};
