/* XPM */
static char * stopsign[] = {
/* stopsign pixmap
 * width height ncolors chars_per_pixel */
"48 48 3 1 ",
"  c #FFFFFFFFFFFF 	 s s_#FFFFFFFFFFFF ",
". c #000 	 s s_#000 ",
"X c #FF0000 	 s s_#FF0000 ",
/* pixels */
"                                                ",
"           ..........................           ",
"          .XXXXXXXXXXXXXXXXXXXXXXXXXX.          ",
"         .XXXXXXXXXXXXXXXXXXXXXXXXXXXX.         ",
"        .XXXXXXXXXXXXXXXXXXXXXXXXXXXXXX.        ",
"       .XXXXXXXXXXXXXXXXXXXXXXXXXXXXXXXX.       ",
"      .XXXXXXXXXXXXXXXXXXXXXXXXXXXXXXXXXX.      ",
"     .XXXXXXXXXXXXXXXXXXXXXXXXXXXXXXXXXXXX.     ",
"    .XXXXXXXXXXXXXXXXXXXXXXXXXXXXXXXXXXXXXX.    ",
"   .XXXXXXXXXXXXXXXXXXXXXXXXXXXXXXXXXXXXXXXX.   ",
"  .XXXXXXXXXXXXXXXXXXXXXXXXXXXXXXXXXXXXXXXXXX.  ",
" .XXXXXXXXXXXXXXXXXXXXXXXXXXXXXXXXXXXXXXXXXXXX. ",
" .XXXXX     XXX        XX      XXX      XXXXXX. ",
" .XXXXX     XXX        XX      XXX      XXXXXX. ",
" .XXXX  XXX  XXXXX  XXXX  XXXX  XX  XXX  XXXXX. ",
" .XXXX  XXX  XXXXX  XXXX  XXXX  XX  XXX  XXXXX. ",
" .XXXX  XXXXXXXXXX  XXXX  XXXX  XX  XXX  XXXXX. ",
" .XXXX  XXXXXXXXXX  XXXX  XXXX  XX  XXX  XXXXX. ",
" .XXXXX  XXXXXXXXX  XXXX  XXXX  XX  XXX  XXXXX. ",
" .XXXXX  XXXXXXXXX  XXXX  XXXX  XX  XXX  XXXXX. ",
" .XXXXXX  XXXXXXXX  XXXX  XXXX  XX  XXX  XXXXX. ",
" .XXXXXX  XXXXXXXX  XXXX  XXXX  XX  XXX  XXXXX. ",
" .XXXXXXX  XXXXXXX  XXXX  XXXX  XX      XXXXXX. ",
" .XXXXXXX  XXXXXXX  XXXX  XXXX  XX      XXXXXX. ",
" .XXXXXXXX  XXXXXX  XXXX  XXXX  XX  XXXXXXXXXX. ",
" .XXXXXXXX  XXXXXX  XXXX  XXXX  XX  XXXXXXXXXX. ",
" .XXXXXXXXX  XXXXX  XXXX  XXXX  XX  XXXXXXXXXX. ",
" .XXXXXXXXX  XXXXX  XXXX  XXXX  XX  XXXXXXXXXX. ",
" .XXXXXXXXX  XXXXX  XXXX  XXXX  XX  XXXXXXXXXX. ",
" .XXXXXXXXX  XXXXX  XXXX  XXXX  XX  XXXXXXXXXX. ",
" .XXXXXXXXX  XXXXX  XXXX  XXXX  XX  XXXXXXXXXX. ",
" .XXXXXXXXX  XXXXX  XXXX  XXXX  XX  XXXXXXXXXX. ",
" .XXXX  XXX  XXXXX  XXXX  XXXX  XX  XXXXXXXXXX. ",
" .XXXX  XXX  XXXXX  XXXX  XXXX  XX  XXXXXXXXXX. ",
" .XXXXX     XXXXXX  XXXXX      XXX  XXXXXXXXXX. ",
" .XXXXX     XXXXXX  XXXXX      XXX  XXXXXXXXXX. ",
" .XXXXXXXXXXXXXXXXXXXXXXXXXXXXXXXXXXXXXXXXXXXX. ",
"  .XXXXXXXXXXXXXXXXXXXXXXXXXXXXXXXXXXXXXXXXXX.  ",
"   .XXXXXXXXXXXXXXXXXXXXXXXXXXXXXXXXXXXXXXXX.   ",
"    .XXXXXXXXXXXXXXXXXXXXXXXXXXXXXXXXXXXXXX.    ",
"     .XXXXXXXXXXXXXXXXXXXXXXXXXXXXXXXXXXXX.     ",
"      .XXXXXXXXXXXXXXXXXXXXXXXXXXXXXXXXXX.      ",
"       .XXXXXXXXXXXXXXXXXXXXXXXXXXXXXXXX.       ",
"        .XXXXXXXXXXXXXXXXXXXXXXXXXXXXXX.        ",
"         .XXXXXXXXXXXXXXXXXXXXXXXXXXXX.         ",
"          .XXXXXXXXXXXXXXXXXXXXXXXXXX.          ",
"           ..........................           ",
"                                                "
} ;
